<svg width="368" height="298" viewBox="0 0 368 298" fill="none" xmlns="http://www.w3.org/2000/svg">
<path d="M187.073 295.986C276.745 294.804 347.986 220.126 347.986 130.442V67.1071C347.986 64.862 346.213 63.0896 343.968 63.0896H239.293V6.01752C239.293 3.77245 237.52 2 235.276 2H134.617C132.372 2 130.6 3.77245 130.6 6.01752V32.4857H25.9239C23.6792 32.4857 21.9071 34.2582 21.9071 36.5033V132.805C21.789 223.671 95.9837 297.168 187.073 295.986Z" fill="#FF788F" stroke="white" stroke-width="2" stroke-linecap="round" stroke-linejoin="round"/>
<path d="M183.429 207.377C178.876 203.485 177.755 196.689 177.095 192.796L183.956 187.32L193.721 207.575L183.429 207.377Z" fill="white" stroke="black" stroke-width="1.2" stroke-miterlimit="10" stroke-linecap="round" stroke-linejoin="round"/>
<path d="M171.025 218.791L173.268 212.985L190.752 203.814L245.25 202.231L241.82 210.544L233.638 216.878L217.803 230.799L190.356 225.521L171.025 218.791Z" fill="white"/>
<path d="M162.448 168.318L160.6 160.269L163.305 158.091L178.018 151.559L184.484 172.211L184.946 184.021L183.429 190.025L181.845 190.487L164.493 198.008L160.864 188.441L162.448 168.318Z" fill="white"/>
<path d="M268.277 174.784L270.058 174.256L269.399 167.79L267.551 159.081L265.044 156.376L260.162 154.594L253.564 154.924L248.022 156.046L233.572 161.258L223.478 166.47L214.966 167.526L202.694 168.912L184.616 169.308L184.286 175.114L202.167 185.67L252.178 181.909L268.277 174.784Z" fill="#FF788F"/>
<path d="M40.1893 141.794C42.1027 141.267 43.6861 140.673 44.9397 139.947C46.1933 139.287 47.183 138.561 47.9747 137.77C48.7005 136.978 49.2283 136.186 49.5582 135.329C49.8221 134.471 50.0201 133.613 50.0201 132.689C50.0201 130.71 49.0964 129.324 47.249 128.533C45.4016 127.741 42.1686 127.213 37.6821 127.015C35.7028 126.883 33.7234 126.619 31.744 126.289C29.7647 125.96 27.9833 125.3 26.3998 124.376C24.8163 123.452 23.5627 122.199 22.573 120.483C21.5834 118.834 21.1215 116.591 21.1215 113.82C21.1215 111.048 21.6493 108.343 22.705 105.836C23.7607 103.329 25.2122 100.954 27.1256 98.8424C29.0389 96.7311 31.3482 94.8178 34.1193 93.2343C36.8244 91.5848 39.9254 90.2652 43.3563 89.2756C47.4469 88.088 50.9438 87.4942 53.9128 87.5601C56.8818 87.5601 59.323 87.824 61.2364 88.3519L57.3437 100.228C55.6282 99.8321 53.7809 99.5682 51.7355 99.5022C49.6902 99.4363 47.183 99.8321 44.28 100.624C41.047 101.548 38.6718 102.669 37.2862 103.989C35.8347 105.308 35.1749 106.892 35.1749 108.739C35.1749 109.861 35.4388 110.719 35.9667 111.312C36.4945 111.906 37.2203 112.368 38.2099 112.698C39.1996 113.028 40.2553 113.292 41.5089 113.424C42.7624 113.556 44.148 113.688 45.6655 113.754C48.8325 114.017 51.5376 114.413 53.8468 114.875C56.1561 115.337 58.0695 116.129 59.6529 117.184C61.1704 118.24 62.3581 119.692 63.0838 121.539C63.8096 123.386 64.2055 125.762 64.2055 128.665C64.2055 134.339 62.2261 139.287 58.2674 143.51C54.3087 147.732 48.3706 150.965 40.3872 153.209C37.7481 153.934 35.3069 154.462 33.1296 154.726C30.9523 154.99 29.1049 155.122 27.4554 155.122C25.806 155.122 24.3545 155.056 23.1668 154.858C21.9792 154.66 20.9896 154.462 20.1318 154.198L23.9586 142.322C25.74 142.784 27.9833 143.048 30.6224 143.114C33.1296 143.444 36.3625 142.916 40.1893 141.794Z" fill="black" stroke="black" stroke-width="1.2" stroke-miterlimit="10" stroke-linecap="round" stroke-linejoin="round"/>
<path d="M70.0776 143.84V82.0077L110.852 71.1975V82.7437L83.6692 90.5292V102.471L107.817 95.6095V106.892L83.6692 113.886V128.599L112.832 120.417V132.03L70.0776 143.84Z" fill="black" stroke="black" stroke-width="1.2" stroke-miterlimit="10" stroke-linecap="round" stroke-linejoin="round"/>
<path d="M55.2324 87.6924C57.7396 87.7584 69.5498 89.2099 70.3415 89.7377C69.4178 92.5748 65.0632 93.9603 62.8859 93.9603C60.7746 94.0263 55.2324 87.6924 55.2324 87.6924Z" fill="black" stroke="black" stroke-width="1.2" stroke-miterlimit="10" stroke-linecap="round" stroke-linejoin="round"/>
<path d="M26.334 124.508C30.4906 126.158 37.9462 127.609 43.5544 128.137C47.5131 128.533 33.9215 122.859 33.9215 122.859L26.334 124.508Z" fill="black" stroke="black" stroke-width="1.2" stroke-miterlimit="10" stroke-linecap="round" stroke-linejoin="round"/>
<path d="M20 154.463C21.8474 155.584 30.9524 157.168 37.8802 156.706C44.8079 156.244 29.105 151.362 29.105 151.362L20 154.463Z" fill="black" stroke="black" stroke-width="1.2" stroke-miterlimit="10" stroke-linecap="round" stroke-linejoin="round"/>
<path d="M79.3146 145.16L70.0776 143.84L72.123 138.364L78.9188 136.121L79.3146 145.16Z" fill="black" stroke="black" stroke-width="1.2" stroke-miterlimit="10" stroke-linecap="round" stroke-linejoin="round"/>
<path d="M126.158 131.825L116.921 130.505L118.967 125.029L125.763 122.786L126.158 131.825Z" fill="black" stroke="black" stroke-width="1.2" stroke-miterlimit="10" stroke-linecap="round" stroke-linejoin="round"/>
<path d="M167.422 121.423L160.785 120.475L160.959 114.117L167.026 112.384L167.422 121.423Z" fill="black" stroke="black" stroke-width="1.2" stroke-miterlimit="10" stroke-linecap="round" stroke-linejoin="round"/>
<path d="M151.77 104.6L145.5 101.9L147.053 97.9828L153.849 95.7395L151.77 104.6Z" fill="black" stroke="black" stroke-width="1.2" stroke-miterlimit="10" stroke-linecap="round" stroke-linejoin="round"/>
<path d="M119.695 129.027L132.58 125.56V83.8909L145.258 101.815H148.201L160.88 76.4788V118.625L173.764 115.157V55.5167L159.527 58.9842L147.008 84.479L131.138 66.9594L119.695 69.3867V129.027Z" fill="black" stroke="black" stroke-width="1.2" stroke-linecap="round" stroke-linejoin="round"/>
<path d="M126.284 131.801L139.168 128.334V86.665L151.847 104.589H154.79L167.468 79.2529V121.399L180.353 117.932V58.2908L166.116 61.7583L153.597 87.2531L140.521 68.6932L126.284 72.1607V131.801Z" fill="white" stroke="black" stroke-width="1.2" stroke-linecap="round" stroke-linejoin="round"/>
<path d="M110.852 71.2637L120.089 72.5832L108.609 75.8822L105.97 73.309L110.852 71.2637Z" fill="black" stroke="black" stroke-width="1.2" stroke-miterlimit="10" stroke-linecap="round" stroke-linejoin="round"/>
<path d="M131.166 66.9595L140.403 68.55L127 71.5L126.284 69.0048L131.166 66.9595Z" fill="black" stroke="black" stroke-width="1.2" stroke-miterlimit="10" stroke-linecap="round" stroke-linejoin="round"/>
<path d="M107.817 95.6758L117.054 96.9954L105.97 100.162L104.584 98.6448L107.817 95.6758Z" fill="black" stroke="black" stroke-width="1.2" stroke-miterlimit="10" stroke-linecap="round" stroke-linejoin="round"/>
<path d="M112.832 120.352L122.069 121.671L110.984 124.772L110.126 123.189L112.832 120.352Z" fill="black" stroke="black" stroke-width="1.2" stroke-miterlimit="10" stroke-linecap="round" stroke-linejoin="round"/>
<path d="M49.4263 143.115C51.3397 142.587 52.9232 141.993 54.1768 141.267C55.4304 140.608 56.4201 139.882 57.2118 139.09C57.9376 138.298 58.4654 137.507 58.7953 136.649C59.0592 135.791 59.2571 134.933 59.2571 134.01C59.2571 132.03 58.3334 130.645 56.486 129.853C54.6386 129.061 51.4057 128.533 46.9192 128.336C44.9398 128.204 42.9605 127.94 40.9811 127.61C39.0018 127.28 37.2203 126.62 35.6369 125.696C34.0534 124.773 32.7998 123.519 31.8101 121.804C30.8204 120.154 30.3586 117.911 30.3586 115.14C30.3586 112.369 30.8864 109.664 31.9421 107.156C32.9977 104.649 34.4492 102.274 36.3626 100.163C38.276 98.0514 40.5852 96.1381 43.3563 94.5546C46.0614 92.9051 49.1624 91.5856 52.5933 90.5959C56.684 89.4083 60.1808 88.8145 63.1499 88.8804C66.1189 88.8804 68.5601 89.1444 70.4735 89.6722L66.5807 101.548C64.8653 101.152 63.0179 100.889 60.9726 100.823C58.9272 100.757 56.4201 101.152 53.517 101.944C50.2841 102.868 47.9088 103.99 46.5233 105.309C45.0718 106.629 44.412 108.212 44.412 110.06C44.412 111.181 44.6759 112.039 45.2037 112.633C45.7316 113.226 46.4573 113.688 47.447 114.018C48.4367 114.348 49.4923 114.612 50.7459 114.744C51.9995 114.876 53.3851 115.008 54.9026 115.074C58.0695 115.338 60.7746 115.734 63.0839 116.196C65.3931 116.657 67.3065 117.449 68.89 118.505C70.4075 119.56 71.5951 121.012 72.3209 122.859C73.0466 124.707 73.4425 127.082 73.4425 129.985C73.4425 135.659 71.4632 140.608 67.5044 144.83C63.5457 149.053 57.6077 152.286 49.6243 154.529C46.9851 155.255 44.5439 155.783 42.3667 156.047C40.1894 156.31 38.342 156.442 36.6925 156.442C35.043 156.442 33.5915 156.376 32.4039 156.178C31.2163 155.981 30.2266 155.783 29.3689 155.519L33.1956 143.643C34.9771 144.104 37.2203 144.368 39.8595 144.434C42.3667 144.764 45.5996 144.236 49.4263 143.115Z" fill="white" stroke="black" stroke-width="1.2" stroke-miterlimit="10" stroke-linecap="round" stroke-linejoin="round"/>
<path d="M79.3147 145.16V84.328L120.089 72.5178V84.0641L92.9063 91.8495V103.792L117.054 96.9299V108.212L92.9063 115.206V129.919L122.069 121.738V133.35L79.3147 145.16Z" fill="white" stroke="black" stroke-width="1.2" stroke-miterlimit="10" stroke-linecap="round" stroke-linejoin="round"/>
<path d="M179.272 103.923L183.363 101.35L187.321 99.9641L191.346 108.871L195.173 120.483L200.385 143.642L203.75 164.491L204.608 170.825L192.204 171.815L184.088 170.759L180.13 169.307L174.06 141.597L171.75 131.04L169.639 123.782L170.101 115.601L172.938 109.597L177.227 105.44L179.272 103.923Z" fill="white"/>
<path d="M205.993 275.335C222.573 275.335 236.013 270.461 236.013 264.448C236.013 258.436 222.573 253.562 205.993 253.562C189.413 253.562 175.973 258.436 175.973 264.448C175.973 270.461 189.413 275.335 205.993 275.335Z" fill="white" stroke="black" stroke-width="1.2" stroke-miterlimit="10" stroke-linecap="round" stroke-linejoin="round"/>
<path d="M218.199 262.073C209.952 254.024 208.83 235.88 208.896 229.48C208.962 223.08 202.958 224.729 202.364 228.556C201.705 232.383 204.608 251.121 194.447 261.875" fill="white"/>
<path d="M218.199 262.073C209.952 254.024 208.83 235.88 208.896 229.48C208.962 223.08 202.958 224.729 202.364 228.556C201.705 232.383 204.608 251.121 194.447 261.875" stroke="black" stroke-width="1.2" stroke-miterlimit="10" stroke-linecap="round" stroke-linejoin="round"/>
<path d="M181.251 190.949C172.806 194.775 167.66 196.689 162.777 198.668" stroke="black" stroke-width="1.2" stroke-miterlimit="10" stroke-linecap="round" stroke-linejoin="round"/>
<path d="M160.6 159.477C167.132 156.112 171.487 154.33 176.303 152.351" stroke="black" stroke-width="1.2" stroke-miterlimit="10" stroke-linecap="round" stroke-linejoin="round"/>
<path d="M182.307 170.165C170.299 234.758 235.948 202.824 248.352 202.561C254.092 221.298 262.207 254.947 265.77 265.174C270.454 265.57 280.153 261.479 288.005 259.368C284.508 237.265 280.615 194.445 276.524 183.559C272.368 172.672 222.422 176.895 207.511 180.392" fill="#FF788F"/>
<path d="M182.307 170.165C170.299 234.758 235.948 202.824 248.352 202.561C254.092 221.298 262.207 254.947 265.77 265.174C270.454 265.57 280.153 261.479 288.005 259.368C284.508 237.265 280.615 194.445 276.524 183.559C272.368 172.672 222.422 176.895 207.511 180.392" stroke="black" stroke-width="1.2" stroke-miterlimit="10" stroke-linecap="round" stroke-linejoin="round"/>
<path d="M169.309 215.756C173.928 212.193 182.307 207.575 188.377 205.266" stroke="black" stroke-width="1.2" stroke-miterlimit="10" stroke-linecap="round" stroke-linejoin="round"/>
<path d="M240.236 231.064L237.663 217.868L238.587 201.439L240.962 180.92L242.017 173.86L264.78 171.815L270.256 173.267L271.312 188.442L271.246 203.023L263.065 211.732L240.236 231.064Z" fill="#FF788F"/>
<path d="M225.193 165.283C249.605 152.813 265.902 151.163 268.277 161.06C271.114 173.002 270.256 202.561 269.663 213.051" stroke="black" stroke-width="1.2" stroke-miterlimit="10" stroke-linecap="round" stroke-linejoin="round"/>
<path d="M110.456 236.012L44.6099 254.09V217.274L110.456 199.196V236.012Z" fill="#FF788F" stroke="black" stroke-width="1.2" stroke-miterlimit="10" stroke-linecap="round" stroke-linejoin="round"/>
<path d="M44.8078 238.717C47.117 228.424 59.7189 232.911 65.657 235.22C71.5951 237.529 72.6507 227.303 78.1269 216.284C83.6691 205.266 85.6485 226.709 87.6938 227.633C89.7391 228.556 91.4546 220.177 93.6319 218.132C95.8091 216.086 97.9864 224.927 102.605 222.75C107.223 220.573 110.456 208.103 110.456 208.103V235.946L44.6099 254.024L44.8078 238.717Z" fill="white" stroke="black" stroke-width="1.2" stroke-miterlimit="10" stroke-linecap="round" stroke-linejoin="round"/>
<path d="M205.466 60.7072L207.643 59.3876C207.643 59.3876 210.744 56.0887 210.876 52.6578C211.074 46.8517 206.521 40.7157 201.177 40.0559C199.527 46.9836 192.798 49.8207 188.509 50.6784C177.029 52.9217 173.202 55.099 174.654 68.6906C176.171 82.2821 185.672 87.8903 187.585 88.3521C189.499 88.814 190.422 83.7336 189.499 82.2821C188.575 80.8306 205.466 60.7072 205.466 60.7072Z" fill="black" stroke="black" stroke-width="1.2" stroke-miterlimit="10" stroke-linecap="round" stroke-linejoin="round"/>
<path d="M189.565 77.0036C188.575 75.5521 186.992 74.8263 185.606 75.3542C183.825 75.948 182.967 78.2572 183.759 80.4345C184.484 82.6118 186.992 84.2613 188.773 83.6015C188.905 83.5355 189.103 83.4695 189.235 83.4035C191.478 90.5292 196.69 95.2797 202.167 94.7518C208.83 94.0261 213.449 85.5808 212.393 75.75C211.536 67.7007 209.754 61.6306 207.709 59.4534C207.709 59.4534 203.486 57.2101 192.534 62.9502C187.189 65.6553 189.565 77.0036 189.565 77.0036Z" fill="#FF788F" stroke="black" stroke-width="1.2" stroke-miterlimit="10" stroke-linecap="round" stroke-linejoin="round"/>
<path d="M211.734 78.1912C214.175 78.1912 216.154 76.2121 216.154 73.7707C216.154 71.3292 214.175 69.3501 211.734 69.3501C209.292 69.3501 207.313 71.3292 207.313 73.7707C207.313 76.2121 209.292 78.1912 211.734 78.1912Z" fill="#FF788F" stroke="black" stroke-width="1.2" stroke-miterlimit="10" stroke-linecap="round" stroke-linejoin="round"/>
<path d="M210.546 69.5485L215.692 75.5525C215.494 76.0803 215.164 76.5422 214.768 76.938L209.028 70.2742C209.49 69.9443 210.018 69.6804 210.546 69.5485Z" fill="white"/>
<path d="M194.381 72.5836C194.579 72.2537 194.777 71.9897 194.975 71.7258L201.507 79.3134C201.243 79.5113 200.913 79.6432 200.583 79.7752L194.381 72.5836Z" fill="white"/>
<path d="M197.614 70.2085L203.42 77.0043C203.156 77.6641 202.76 78.2579 202.299 78.7197L195.701 71.0662C196.294 70.6703 196.954 70.3405 197.614 70.2085Z" fill="white"/>
<path d="M207.973 71.5278C208.105 71.2639 208.303 71.066 208.434 70.868L214.109 77.4659C213.845 77.5978 213.647 77.7298 213.383 77.8618" fill="white"/>
<path d="M211.734 78.1912C214.175 78.1912 216.154 76.2121 216.154 73.7707C216.154 71.3292 214.175 69.3501 211.734 69.3501C209.292 69.3501 207.313 71.3292 207.313 73.7707C207.313 76.2121 209.292 78.1912 211.734 78.1912Z" stroke="black" stroke-width="1.2" stroke-miterlimit="10" stroke-linecap="round" stroke-linejoin="round"/>
<path d="M198.736 80.2366C201.541 80.2366 203.816 77.9621 203.816 75.1563C203.816 72.3505 201.541 70.0759 198.736 70.0759C195.93 70.0759 193.655 72.3505 193.655 75.1563C193.655 77.9621 195.93 80.2366 198.736 80.2366Z" stroke="black" stroke-width="1.2" stroke-miterlimit="10" stroke-linecap="round" stroke-linejoin="round"/>
<path d="M207.313 73.9686L203.75 74.2985" stroke="black" stroke-width="1.2" stroke-miterlimit="10" stroke-linecap="round" stroke-linejoin="round"/>
<path d="M209.952 76.6078L208.764 74.9584L205.993 75.4862L207.511 78.2573L209.952 76.6078Z" fill="#FF788F"/>
<path d="M208.896 78.9172C211.535 78.6533 213.185 77.1358 213.053 75.8822C212.921 74.3647 210.084 74.8265 207.511 75.1564" fill="#FF788F"/>
<path d="M208.896 78.9172C211.535 78.6533 213.185 77.1358 213.053 75.8822C212.921 74.3647 210.084 74.8265 207.511 75.1564" stroke="black" stroke-width="1.2" stroke-miterlimit="10" stroke-linecap="round" stroke-linejoin="round"/>
<path d="M188.377 127.345L195.173 141.069" stroke="black" stroke-width="1.2" stroke-miterlimit="10" stroke-linecap="round" stroke-linejoin="round"/>
<path d="M179.8 169.176L172.08 131.964" stroke="black" stroke-width="1.2" stroke-miterlimit="10" stroke-linecap="round" stroke-linejoin="round"/>
<path d="M197.746 103.395C197.746 103.395 191.742 105.969 186.991 99.7666L189.037 85.3173" stroke="black" stroke-width="1.2" stroke-miterlimit="10" stroke-linecap="round" stroke-linejoin="round"/>
<path d="M186.53 54.703C186.53 54.703 182.505 43.8166 172.41 48.9629C162.316 54.1092 169.309 68.8884 178.942 66.4472C188.575 64.006 186.53 54.703 186.53 54.703Z" fill="black" stroke="black" stroke-width="1.2" stroke-miterlimit="10" stroke-linecap="round" stroke-linejoin="round"/>
<path d="M288.005 259.368C295.79 262.733 301.728 267.682 304.037 272.366C300.343 275.863 270.586 279.294 267.155 277.512C265.902 273.818 265.374 268.737 265.836 265.175" fill="black"/>
<path d="M288.005 259.368C295.79 262.733 301.728 267.682 304.037 272.366C300.343 275.863 270.586 279.294 267.155 277.512C265.902 273.818 265.374 268.737 265.836 265.175" stroke="black" stroke-width="1.2" stroke-miterlimit="10" stroke-linecap="round" stroke-linejoin="round"/>
<path d="M236.805 232.976C236.08 227.698 236.937 219.913 242.15 217.01C247.362 214.107 257.589 211.468 260.162 211.599C262.735 211.731 275.205 212.589 279.493 220.111" fill="black"/>
<path d="M236.805 232.976C236.08 227.698 236.937 219.913 242.15 217.01C247.362 214.107 257.589 211.468 260.162 211.599C262.735 211.731 275.205 212.589 279.493 220.111" stroke="black" stroke-width="1.2" stroke-miterlimit="10" stroke-linecap="round" stroke-linejoin="round"/>
<path d="M236.805 232.977C239.15 237.387 256.4 235.722 266.89 230.972C277.381 226.221 281.143 223.542 279.493 220.111C277.844 216.746 265.11 217.67 256.203 219.583C247.626 221.43 235.354 226.181 236.805 232.977Z" fill="white" stroke="black" stroke-width="1.2" stroke-miterlimit="10" stroke-linecap="round" stroke-linejoin="round"/>
<path d="M186.991 99.7666C195.767 112.368 203.486 156.64 204.608 170.759C195.173 172.145 186.991 172.607 179.866 169.11" stroke="black" stroke-width="1.2" stroke-miterlimit="10" stroke-linecap="round" stroke-linejoin="round"/>
<path d="M190.224 105.968L193.721 115.073L200.187 142.455L204.212 167.196L204.41 169.308L217.144 167.724L212.063 124.047L208.566 100.69L187.651 95.016L187.255 99.8324L188.773 102.208L190.224 105.968Z" fill="black"/>
<path d="M198.736 85.3173C198.934 86.4389 200.781 87.7585 202.166 87.6265" stroke="black" stroke-width="1.2" stroke-miterlimit="10" stroke-linecap="round" stroke-linejoin="round"/>
<path d="M204.41 50.0181C208.632 49.8202 212.459 46.7852 213.317 42.7605C218.133 51.2717 212.393 57.4077 207.907 59.7829" fill="black"/>
<path d="M204.41 50.0181C208.632 49.8202 212.459 46.7852 213.317 42.7605C218.133 51.2717 212.393 57.4077 207.907 59.7829" stroke="black" stroke-width="1.2" stroke-miterlimit="10" stroke-linecap="round" stroke-linejoin="round"/>
<path d="M194.447 154.792L200.385 162.314L204.014 160.862L207.511 155.452L210.216 138.1L209.952 115.403L196.822 114.743L195.899 134.999L194.447 154.792Z" fill="white"/>
<path d="M242.215 172.607C239.049 187.188 237.861 209.093 237.531 223.146" stroke="black" stroke-width="1.2" stroke-miterlimit="10" stroke-linecap="round" stroke-linejoin="round"/>
<path d="M161.854 198.8C166.153 198.8 169.639 189.938 169.639 179.007C169.639 168.075 166.153 159.213 161.854 159.213C157.554 159.213 154.068 168.075 154.068 179.007C154.068 189.938 157.554 198.8 161.854 198.8Z" fill="white" stroke="black" stroke-width="1.2" stroke-miterlimit="10" stroke-linecap="round" stroke-linejoin="round"/>
<path d="M119.215 215L133.442 211.082V130.026" stroke="black" stroke-width="1.2" stroke-miterlimit="10" stroke-linecap="round" stroke-linejoin="round"/>
<path d="M209.952 115.403C211.535 130.117 210.282 157.894 203.42 161.193C189.433 167.922 176.039 141.861 172.08 131.898C165.35 114.942 173.07 104.979 186.991 99.7666" stroke="black" stroke-width="1.2" stroke-miterlimit="10" stroke-linecap="round" stroke-linejoin="round"/>
<path d="M167.858 217.604C163.173 230.668 217.342 239.377 219.651 228.226C222.224 216.152 171.685 207.113 167.858 217.604Z" fill="white" stroke="black" stroke-width="1.2" stroke-miterlimit="10" stroke-linecap="round" stroke-linejoin="round"/>
<path d="M218.199 230.536C223.741 225.983 232.319 218.396 237.927 212.854Z" fill="white"/>
<path d="M218.199 230.536C223.741 225.983 232.319 218.396 237.927 212.854" stroke="black" stroke-width="1.2" stroke-miterlimit="10" stroke-linecap="round" stroke-linejoin="round"/>
<path d="M47.1171 188.639C42.7626 188.639 38.8039 185.802 37.6162 181.382C36.1647 176.104 39.1997 170.627 44.478 169.176L141.07 142.257C146.349 140.805 151.825 143.84 153.276 149.118C154.728 154.397 151.693 159.873 146.415 161.324L49.8223 188.31C48.8986 188.508 48.0408 188.639 47.1171 188.639Z" fill="white" stroke="black" stroke-width="1.2" stroke-miterlimit="10" stroke-linecap="round" stroke-linejoin="round"/>
<path d="M142.39 154.331C143.884 154.331 145.095 152.765 145.095 150.834C145.095 148.903 143.884 147.337 142.39 147.337C140.896 147.337 139.685 148.903 139.685 150.834C139.685 152.765 140.896 154.331 142.39 154.331Z" stroke="black" stroke-width="1.2" stroke-miterlimit="10" stroke-linecap="round" stroke-linejoin="round"/>
<path d="M144.303 153.341L147.009 156.904" stroke="black" stroke-width="1.2" stroke-miterlimit="10" stroke-linecap="round" stroke-linejoin="round"/>
<path d="M118.82 219.034C120.378 219.197 121.826 217.566 122.053 215.392C122.28 213.217 121.201 211.322 119.643 211.159C118.085 210.997 116.637 212.627 116.41 214.802C116.183 216.976 117.262 218.871 118.82 219.034Z" fill="white" stroke="black" stroke-width="1.2" stroke-miterlimit="10" stroke-linecap="round" stroke-linejoin="round"/>
<path d="M94.3577 277.826C92.3784 277.826 90.597 276.506 90.0691 274.593C89.4094 272.217 90.7949 269.776 93.1701 269.116L136.65 256.976C139.025 256.317 141.466 257.702 142.126 260.077C142.786 262.453 141.4 264.894 139.025 265.554L95.5454 277.694C95.1495 277.76 94.7536 277.826 94.3577 277.826Z" fill="white" stroke="black" stroke-width="1.2" stroke-miterlimit="10" stroke-linecap="round" stroke-linejoin="round"/>
<path d="M94.3577 261.925C92.3784 261.925 90.597 260.605 90.0691 258.692C89.4094 256.316 90.7949 253.875 93.1701 253.215L136.65 241.075C139.025 240.416 141.466 241.801 142.126 244.176C142.786 246.552 141.4 248.993 139.025 249.653L95.5454 261.793C95.1495 261.859 94.7536 261.925 94.3577 261.925Z" fill="white" stroke="black" stroke-width="1.2" stroke-miterlimit="10" stroke-linecap="round" stroke-linejoin="round"/>
<path d="M128.007 259.352L93.1701 269.116C90.7949 269.776 89.4094 272.217 90.0691 274.593C90.597 276.572 92.3784 277.826 94.3577 277.826C94.7536 277.826 95.1495 277.76 95.5454 277.628L128.337 268.457L128.007 259.352Z" fill="black" stroke="black" stroke-width="1.2" stroke-miterlimit="10" stroke-linecap="round" stroke-linejoin="round"/>
<path d="M110.588 248.267L93.1701 253.15C90.7949 253.809 89.4094 256.251 90.0691 258.626C90.597 260.605 92.3784 261.859 94.3577 261.859C94.7536 261.859 95.1495 261.793 95.5454 261.661L110.588 257.438V248.267V248.267Z" fill="black" stroke="black" stroke-width="1.2" stroke-miterlimit="10" stroke-linecap="round" stroke-linejoin="round"/>
<path d="M226.117 144.895L225.787 152.549L224.797 160.4L225.193 164.491L224.203 166.206L219.717 168.516L217.54 169.307L216.088 160.73L212.327 126.487L209.292 107.618L209.952 103.065L211.338 99.9641L214.571 101.152L220.707 104.253L227.568 108.937L233.176 112.236L250.595 119.296L262.933 120.879L274.281 125.564L270.85 133.547L268.673 141.663L268.211 147.996L269.531 158.751L273.027 164.491L268.277 162.248L254.883 152.087L235.09 135.395L223.547 124.867L225.193 135.395L226.117 144.895Z" fill="white"/>
<path d="M217.54 110.125C229.441 126.08 225.193 165.283 225.193 165.283Z" fill="white"/>
<path d="M217.54 110.125C229.441 126.08 225.193 165.283 225.193 165.283" stroke="black" stroke-width="1.2" stroke-miterlimit="10" stroke-linecap="round" stroke-linejoin="round"/>
<path d="M209.292 105.375C211.997 116.525 216.946 165.943 217.078 169.11C220.443 168.45 223.412 167.196 225.127 165.217" stroke="black" stroke-width="1.2" stroke-miterlimit="10" stroke-linecap="round" stroke-linejoin="round"/>
<path d="M257.522 27.9818C260.426 66.7111 259.7 95.8736 257.522 128.467C270.718 134.141 320.202 131.106 333.464 124.574C338.28 100.624 338.94 52.7237 336.037 25.2107C312.68 29.3014 262.009 28.9055 257.522 27.9818Z" fill="white" stroke="black" stroke-width="1.2" stroke-miterlimit="10" stroke-linecap="round" stroke-linejoin="round"/>
<path d="M288.4 72.9128H277.382L277.316 100.03L288.598 100.294L288.4 72.9128Z" fill="black"/>
<path d="M303.509 79.1151H293.019V100.03L303.839 99.6344L303.509 79.1151Z" fill="black"/>
<path d="M271.708 38.6042C272.763 54.2411 272.434 82.348 271.84 99.8982C276.92 100.162 296.978 101.218 323.567 98.9745" stroke="black" stroke-width="1.2" stroke-linecap="round" stroke-linejoin="round"/>
<path d="M269.794 39.3298L271.51 35.767L273.687 38.9999L269.794 39.3298Z" fill="black"/>
<path d="M323.171 100.954L326.404 98.7104L322.841 96.995L323.171 100.954Z" fill="black"/>
<path d="M310.965 39.7258C302.124 39.7258 294.932 46.9175 294.932 55.7586C294.932 64.5997 302.124 71.7914 310.965 71.7914C319.806 71.7914 326.998 64.5997 326.998 55.7586C326.998 46.9175 319.872 39.7258 310.965 39.7258ZM310.965 63.2142C306.808 63.2142 303.509 59.8493 303.509 55.7586C303.509 51.602 306.874 48.303 310.965 48.303C315.122 48.303 318.42 51.6679 318.42 55.7586C318.486 59.9152 315.122 63.2142 310.965 63.2142Z" fill="#FF788F" stroke="black" stroke-width="1.2" stroke-miterlimit="10" stroke-linecap="round" stroke-linejoin="round"/>
<path d="M315.451 40.3197L313.142 48.567C314.726 49.0289 316.111 50.0185 317.035 51.3381L323.897 46.2578C321.851 43.4207 318.882 41.3094 315.451 40.3197Z" fill="black" stroke="black" stroke-width="1.2" stroke-miterlimit="10" stroke-linecap="round" stroke-linejoin="round"/>
<path d="M313.142 142.454L310.965 127.741L300.607 124.64L293.811 134.141L304.697 147.205L313.142 142.454Z" fill="#FF788F"/>
<path d="M268.277 150.504C275.073 157.629 287.675 163.501 295.79 162.38C314.66 159.807 327.13 147.271 327.856 139.683C329.571 121.869 323.897 112.698 321.588 110.851C306.809 99.4364 294.009 103.263 310.899 115.469C318.223 120.747 314.396 127.939 313.868 133.943" fill="#FF788F"/>
<path d="M268.277 150.504C275.073 157.629 287.675 163.501 295.79 162.38C314.66 159.807 327.13 147.271 327.856 139.683C329.571 121.869 323.897 112.698 321.588 110.851C306.809 99.4364 294.009 103.263 310.899 115.469C318.223 120.747 314.396 127.939 313.868 133.943" stroke="black" stroke-width="1.2" stroke-miterlimit="10" stroke-linecap="round" stroke-linejoin="round"/>
<path d="M316.045 136.384C315.32 124.574 292.227 109.993 291.501 126.422Z" fill="#FF788F"/>
<path d="M316.045 136.384C315.32 124.574 292.227 109.993 291.501 126.422" stroke="black" stroke-width="1.2" stroke-miterlimit="10" stroke-linecap="round" stroke-linejoin="round"/>
<path d="M308.062 143.642C300.54 127.741 286.883 118.57 284.64 134.669Z" fill="#FF788F"/>
<path d="M308.062 143.642C300.54 127.741 286.883 118.57 284.64 134.669" stroke="black" stroke-width="1.2" stroke-miterlimit="10" stroke-linecap="round" stroke-linejoin="round"/>
<path d="M297.637 147.139C285.827 132.36 281.011 131.766 277.184 137.374C274.083 141.927 282.528 154.727 286.817 149.448" fill="#FF788F"/>
<path d="M297.637 147.139C285.827 132.36 281.011 131.766 277.184 137.374C274.083 141.927 282.528 154.727 286.817 149.448" stroke="black" stroke-width="1.2" stroke-miterlimit="10" stroke-linecap="round" stroke-linejoin="round"/>
<path d="M284.64 145.358C287.081 148.723 289.522 152.615 290.182 154.397Z" fill="#FF788F"/>
<path d="M284.64 145.358C287.081 148.723 289.522 152.615 290.182 154.397" stroke="black" stroke-width="1.2" stroke-miterlimit="10" stroke-linecap="round" stroke-linejoin="round"/>
<path d="M271.708 131.304C266.759 141.663 265.902 161.588 276.524 166.339C286.685 170.891 301.398 164.623 303.773 160.532" stroke="black" stroke-width="1.2" stroke-miterlimit="10" stroke-linecap="round" stroke-linejoin="round"/>
<path d="M210.942 99.8324C221.366 102.34 233.242 117.317 258.116 120.286" stroke="black" stroke-width="1.2" stroke-miterlimit="10" stroke-linecap="round" stroke-linejoin="round"/>
<path d="M277.184 166.669C265.836 162.842 231.373 132.232 223.72 125.04" stroke="black" stroke-width="1.2" stroke-miterlimit="10" stroke-linecap="round" stroke-linejoin="round"/>
<path d="M199.263 113.819L208.039 115.073L209.226 106.166L211.337 99.9637L209.292 92.1782L200.187 102.669L199.263 113.819Z" fill="#FF788F"/>
<path d="M199.264 113.819C199.264 113.819 198.736 104.187 196.492 99.766C194.249 95.3455 192.072 91.9146 194.117 92.0465C196.097 92.1785 198.538 97.4568 200.451 97.5887C202.364 97.6547 210.744 86.9662 211.733 87.692C213.449 88.9456 207.841 95.9393 207.841 95.9393" fill="#FF788F"/>
<path d="M199.264 113.819C199.264 113.819 198.736 104.187 196.492 99.766C194.249 95.3455 192.072 91.9146 194.117 92.0465C196.097 92.1785 198.538 97.4568 200.451 97.5887C202.364 97.6547 210.744 86.9662 211.733 87.692C213.449 88.9456 207.841 95.9393 207.841 95.9393" stroke="black" stroke-width="1.2" stroke-miterlimit="10" stroke-linecap="round" stroke-linejoin="round"/>
<path d="M209.688 93.3661C210.348 94.4217 211.272 99.1722 211.008 99.832C209.688 103.131 208.105 110.586 208.105 115.007" fill="#FF788F"/>
<path d="M209.688 93.3661C210.348 94.4217 211.272 99.1722 211.008 99.832C209.688 103.131 208.105 110.586 208.105 115.007" stroke="black" stroke-width="1.2" stroke-miterlimit="10" stroke-linecap="round" stroke-linejoin="round"/>
<path d="M209.952 115.403C209.952 115.403 201.969 113.688 196.822 114.744C196.822 114.744 196.558 137.704 194.447 144.368" stroke="black" stroke-width="1.2" stroke-miterlimit="10" stroke-linecap="round" stroke-linejoin="round"/>
<path d="M268.739 150.965L275.073 155.98L282.99 160.136L290.71 162.248L294.998 162.38L301.926 161.06L303.773 160.862L300.54 163.699L295.724 166.141L291.501 167.394L286.487 167.922L279.295 167.328L274.875 165.481L271.84 162.908L270.19 159.477L268.739 153.539V150.965Z" fill="black"/>
</svg>
